# xmcd
#
# Track frame offsets: 
#        150
#        10800
#        23010
#        31458
#        45398
#        56468
#        66178
#        77213
#        86670
#        97733
#
# Disc length: 1451 seconds
#
# Revision: 10
# Processed by: cddbd v1.5.2PL0 Copyright (c) Steve Scherf et al.
# Submitted via: ExactAudioCopy v1.3
#
DISCID=6c05a90a
DTITLE=Various Artist - Billboard Top Country Hits 1964
DYEAR=1990
DGENRE=Oldies
TTITLE0=Connie Smith - Once A Day
TTITLE1=Johnny Cash - Understand Your Man
TTITLE2=Roger Miller - Dang Me
TTITLE3=Lefty Frizzell - Saginaw Michigan
TTITLE4=Buck Owens - My Heart Skips A Beat
TTITLE5=George Jones - The Race Is On
TTITLE6=Jim Reeves - I Guess I'm Crazy
TTITLE7=Roger Miller - Chug-A-Lug
TTITLE8=Buck Owens - Together Again
TTITLE9=Marty Robbins - Begging To You
EXTD=Rhino Compilation 1990 YEAR: 1990
EXTT0=
EXTT1=
EXTT2=
EXTT3=
EXTT4=
EXTT5=
EXTT6=
EXTT7=
EXTT8=
EXTT9=
PLAYORDER=
